<?xml version="1.0" encoding="UTF-8"?>
<svg version="1.1" xmlns="http://www.w3.org/2000/svg" width="1024" height="1024">
<path d="M0 0 C337.92 0 675.84 0 1024 0 C1024 337.92 1024 675.84 1024 1024 C686.08 1024 348.16 1024 0 1024 C0 686.08 0 348.16 0 0 Z " fill="#FEAC54" transform="translate(0,0)"/>
<path d="M0 0 C2.75569447 2.18159145 4.43588747 3.87177494 6 7 C6.0778897 10.09695305 6.09407121 13.17083552 6.06591797 16.26733398 C6.06124512 17.22841064 6.05657227 18.1894873 6.05175781 19.1796875 C6.04123817 21.27118991 6.02856996 23.36268234 6.01403427 25.45416069 C5.99208836 28.76103257 5.97796015 32.06784779 5.96633911 35.37477112 C5.93266698 44.77865383 5.89102392 54.18244242 5.82861328 63.58618164 C5.79103185 69.33319422 5.76796256 75.08010959 5.75430679 80.82722664 C5.74623381 83.02135999 5.73259882 85.21548 5.71337509 87.40954399 C5.68699199 90.47424279 5.67901153 93.53847351 5.67529297 96.60327148 C5.6629361 97.51506668 5.65057922 98.42686188 5.6378479 99.36628723 C5.64052673 100.20052216 5.64320557 101.03475708 5.64596558 101.89427185 C5.64190138 102.61896888 5.63783718 103.3436659 5.63364983 104.09032345 C6.11299533 106.58901168 6.99663065 107.47247764 9 109 C12.15190257 109.40237054 14.23418818 109.33400181 17.15551758 108.05989075 C20.16215028 104.70212772 19.58366609 101.02291524 19.57421875 96.66674805 C19.59471786 95.23214233 19.59471786 95.23214233 19.6156311 93.76855469 C19.6428289 91.68973397 19.66092156 89.61077899 19.67105103 87.53180504 C19.68760745 84.24035764 19.7285948 80.95002614 19.77612305 77.65888977 C19.87267783 70.66859184 19.93845767 63.67818233 20 56.6875 C20.07133772 48.59746964 20.15525765 40.50798168 20.2718811 32.41846657 C20.31199046 29.17788617 20.32865277 25.93772196 20.34448242 22.69694519 C20.37043405 20.70509335 20.39747567 18.71325532 20.42578125 16.72143555 C20.42381744 15.82199722 20.42185364 14.9225589 20.41983032 13.99586487 C20.53050523 8.39792383 21.33960827 5.30131854 25 1 C27.27248238 -0.13624119 28.78302764 -0.26446843 31.3125 -0.375 C32.45138672 -0.44847656 32.45138672 -0.44847656 33.61328125 -0.5234375 C37.35892397 0.29802915 38.66482147 1.9902044 41 5 C41.72623833 8.26387735 41.66004139 11.45906485 41.61181641 14.79150391 C41.61748123 15.77252579 41.62314606 16.75354767 41.62898254 17.76429749 C41.64247125 21.00210932 41.62155123 24.2387998 41.6015625 27.4765625 C41.60706136 29.72668221 41.61518476 31.97679692 41.62582397 34.22689819 C41.64871905 40.14745515 41.64448342 46.06764297 41.63201904 51.98822021 C41.61371495 61.47212852 41.62357788 70.9558217 41.65787888 80.43967819 C41.66400218 83.75638794 41.65070005 87.07263902 41.63589478 90.38931274 C41.63884154 92.41530477 41.64249548 94.44129593 41.64697266 96.46728516 C41.63303719 97.85596046 41.63303719 97.85596046 41.61882019 99.27268982 C41.62678871 100.54278145 41.62678871 100.54278145 41.63491821 101.83853149 C41.63303308 102.57408075 41.63114796 103.30963001 41.6292057 104.06746864 C42.1142712 106.59556653 42.95199044 107.47438252 45 109 C49.63041128 109.59958266 49.63041128 109.59958266 53.69551182 107.72911549 C55.28426892 105.62319798 55.37396495 104.57543305 55.37181091 101.95915222 C55.37856842 101.13911209 55.38532593 100.31907196 55.39228821 99.47418213 C55.38456894 98.57802185 55.37684967 97.68186157 55.36889648 96.75854492 C55.37266296 95.81189468 55.37642944 94.86524445 55.38031006 93.88990784 C55.38675061 91.83228229 55.38640495 89.774627 55.38012505 87.71700096 C55.37103505 84.45943136 55.38121563 81.20243987 55.39674377 77.94490051 C55.43689801 68.68259617 55.43804703 59.42033585 55.43579102 50.15795898 C55.43573991 44.49393558 55.45491411 38.83022285 55.48512459 33.16628456 C55.49595583 29.95881266 55.48381395 26.75193235 55.47129822 23.54447937 C55.48020363 21.57285986 55.49027835 19.60124516 55.50170898 17.62963867 C55.48709373 16.29450729 55.48709373 16.29450729 55.47218323 14.93240356 C55.54780507 8.39063685 57.29417984 4.70582016 62 0 C64.20703125 -0.40625 64.20703125 -0.40625 66.8125 -0.5 C67.66457031 -0.5515625 68.51664063 -0.603125 69.39453125 -0.65625 C72.45081841 0.11354947 74.13809163 1.26942661 76.02026367 3.81152344 C78.32319989 8.95568499 77.74181787 14.83901479 77.75 20.375 C77.77180672 21.89123179 77.79615574 23.40742868 77.82275391 24.92358398 C77.89592992 29.49145606 77.93652841 34.0592028 77.97253418 38.62750244 C78.05624229 48.9059285 78.16782319 59.18402323 78.29846954 69.46195221 C78.35306372 73.8580555 78.39143969 78.25393789 78.41766548 82.65029812 C78.43700321 85.43098519 78.46847442 88.21144599 78.5028801 90.99198341 C78.52304985 92.93530684 78.52822765 94.87876737 78.53311157 96.82218933 C78.54973846 97.98825211 78.56636536 99.15431488 78.58349609 100.35571289 C78.59158295 101.37742081 78.5996698 102.39912872 78.60800171 103.45179749 C78.80714305 106.02077894 78.80714305 106.02077894 80.30728149 107.82933044 C83.14925974 109.79481815 85.67060709 109.35672067 89 109 C91.02022018 107.48796975 91.88252967 106.61400703 92.36076355 104.11432076 C92.35410172 103.40089453 92.34743988 102.6874683 92.34057617 101.9524231 C92.34036469 101.13093781 92.3401532 100.30945251 92.3399353 99.46307373 C92.32443634 98.56534241 92.30893738 97.66761108 92.29296875 96.74267578 C92.28858795 95.79441925 92.28420715 94.84616272 92.2796936 93.86917114 C92.26826926 91.80821181 92.24991269 89.74728204 92.22549438 87.6864357 C92.18726286 84.42508312 92.16767238 81.16409578 92.15307617 77.90255737 C92.11291939 69.80069187 92.04036454 61.69917268 91.96887207 53.59753418 C91.90970681 46.75551188 91.86276925 39.91361887 91.83218384 33.07140732 C91.81272675 29.85776395 91.77519988 26.64465098 91.73706055 23.43118286 C91.72616167 21.45949772 91.71610663 19.48780766 91.70703125 17.51611328 C91.69153229 16.62243042 91.67603333 15.72874756 91.6600647 14.8079834 C91.6588361 10.00292417 91.93757552 6.93822878 95 3 C95.45632813 2.4121875 95.91265625 1.824375 96.3828125 1.21875 C99.22147292 -0.92053032 102.12083033 -0.52091857 105.55078125 -0.42578125 C109.27503066 0.22165605 110.84041369 2.0044448 113 5 C115.85513643 13.56540928 115.22072641 23.67895639 115.53515625 32.64453125 C115.57849594 33.83289078 115.62183563 35.02125031 115.66648865 36.24562073 C116.18708606 50.8282043 116.62012524 65.41313124 117 80 C117.04794708 81.81096161 117.04794708 81.81096161 117.09686279 83.6585083 C117.26540798 90.23542216 117.39489268 96.81099637 117.46334839 103.38973999 C117.487462 105.35378439 117.52178732 107.3177345 117.56716919 109.28140259 C117.92391738 125.50931764 115.30911862 137.61604779 104 150 C103.03320312 151.08667969 103.03320312 151.08667969 102.046875 152.1953125 C94.93643484 159.75344704 86.41216518 165.54774316 77.69921875 171.10546875 C74.81301336 172.88791573 74.81301336 172.88791573 73 176 C72.69347164 178.23936288 72.69347164 178.23936288 72.7409668 180.79101562 C72.73789017 181.81674683 72.73481354 182.84247803 72.73164368 183.89929199 C72.74156845 185.05658813 72.75149323 186.21388428 72.76171875 187.40625 C72.76765549 188.66119263 72.77359222 189.91613525 72.77970886 191.20910645 C72.9394813 212.10228954 73.88308323 232.99038571 74.67533875 253.86656189 C74.86032047 258.7667771 75.040797 263.6671546 75.22143364 268.56753159 C76.05906032 291.2613601 76.92498514 313.953686 77.93359375 336.640625 C77.96914179 337.44251251 78.00468983 338.24440002 78.04131508 339.07058716 C78.39217775 346.96899132 78.75431551 354.86669613 79.13598633 362.76367188 C79.6978146 374.63007937 80.12077176 386.4785298 80.16796875 398.359375 C80.17899628 399.95721832 80.17899628 399.95721832 80.19024658 401.58734131 C80.1668013 413.55096147 78.02999833 422.17887133 69.3828125 430.96875 C61.72280464 437.49859277 53.76395213 438.63596623 44 438 C36.45560958 436.78917191 31.00999341 431.46302473 26 426 C21.14444266 418.91245259 19.69010468 411.02448283 19.73876953 402.56787109 C19.73637646 401.7476157 19.73398338 400.92736031 19.73151779 400.08224869 C19.72836579 397.35415413 19.7419951 394.62648435 19.7578125 391.8984375 C19.76183264 390.46329363 19.76183264 390.46329363 19.76593399 388.99915695 C19.8404541 365.03034788 20.77632088 341.0930738 21.73524475 317.14647675 C21.97324373 311.14950792 22.20083411 305.15214578 22.42871094 299.15478516 C22.52037036 296.74520816 22.61204511 294.33563174 22.70373535 291.92605591 C22.74881729 290.74107639 22.79389923 289.55609688 22.84034729 288.33520889 C22.97553922 284.79244042 23.11179348 281.24971442 23.24841309 277.70700073 C23.92282739 260.20340409 24.55850358 242.69898352 25.1260376 225.19158936 C25.20714231 222.69451472 25.28956809 220.19748256 25.37347412 217.70050049 C25.58526695 211.39056132 25.77137246 205.08114466 25.92016602 198.76940918 C25.99994427 196.00193326 26.12519859 193.23912146 26.25585938 190.47363281 C26.3123746 188.76631459 26.36777951 187.05895911 26.421875 185.3515625 C26.46934875 184.60071381 26.51682251 183.84986511 26.56573486 183.07626343 C26.68299642 177.71673392 25.0937009 175.1633246 21.57003784 171.43753052 C19.33466982 169.39082205 16.97072661 167.80886612 14.375 166.25 C7.50741403 161.8509866 1.79236164 156.69740489 -4 151 C-4.60714844 150.41734375 -5.21429687 149.8346875 -5.83984375 149.234375 C-16.36588652 138.17784201 -19.35224534 123.80438016 -19.2109375 109.12109375 C-19.2042807 107.82787704 -19.1976239 106.53466034 -19.19076538 105.20225525 C-19.07033839 88.63270493 -18.45258626 72.07112926 -17.828125 55.5144043 C-17.65478011 50.91119198 -17.49469266 46.30761609 -17.33771706 41.70382023 C-17.21334412 38.1098893 -17.08097719 34.51628581 -16.94630051 30.92272758 C-16.88377631 29.22325892 -16.82396841 27.52368787 -16.76704788 25.82402229 C-16.68716592 23.46700192 -16.59618725 21.11065467 -16.50244141 18.75415039 C-16.47114891 17.72648308 -16.47114891 17.72648308 -16.43922424 16.67805481 C-16.19844736 11.10575258 -15.61464678 5.90821892 -11.9375 1.5625 C-7.902899 -0.58356436 -4.47635078 -0.9650104 0 0 Z " fill="#3E4143" transform="translate(730,177)"/>
<path d="M0 0 C17.89096771 15.11521813 26.54427892 36.25875065 29.18359375 59.1328125 C31.32736886 84.91104654 25.99647382 109.2004094 9.375 129.5 C-3.38362291 144.44482196 -21.85931201 154.0957744 -41.5 155.9375 C-67.17642696 157.2303982 -89.50205355 154.25530929 -109.5 136.9375 C-110.30308594 136.33164062 -111.10617187 135.72578125 -111.93359375 135.1015625 C-126.87184252 122.50523096 -134.10234734 102.78488663 -136.5 83.9375 C-138.25589281 53.54055058 -133.99936809 29.07963497 -113.3125 5.4375 C-83.86930757 -25.68816057 -32.685856 -25.00582271 0 0 Z " fill="#3E4143" transform="translate(742.5,697.0625)"/>
<path d="M0 0 C0.81237122 -0.00139984 1.62474243 -0.00279968 2.46173096 -0.00424194 C16.55319654 0.01565099 29.66305838 1.52016815 43.25 5.4375 C44.30936768 5.72584717 44.30936768 5.72584717 45.39013672 6.02001953 C84.34472894 16.76445845 117.47638867 45.14812858 137.5625 79.6875 C151.19428034 103.82641801 157.70825056 129.96953031 157.5625 157.625 C157.55976578 158.70758591 157.55976578 158.70758591 157.55697632 159.81204224 C157.50851177 171.24257165 156.88911693 182.28369071 154.25 193.4375 C154.07839355 194.18451172 153.90678711 194.93152344 153.72998047 195.70117188 C151.10154445 206.83502955 147.2415798 217.15902703 142.25 227.4375 C141.95254883 228.06221191 141.65509766 228.68692383 141.34863281 229.33056641 C123.44016747 266.53177305 88.71469432 294.91035772 50.09960938 308.51757812 C10.45270046 321.31654598 -31.36775596 319.17990721 -68.75 300.4375 C-93.50244107 287.72441192 -93.50244107 287.72441192 -99.75 278.4375 C-100.76022798 273.68348598 -100.4491657 269.63606976 -98 265.4375 C-94.22385786 262.08092921 -90.63887008 260.62898158 -85.4765625 260.73828125 C-81.13512951 261.85162868 -77.96485945 264.56844042 -74.46069336 267.23828125 C-62.59283246 276.22190848 -49.02155492 282.35586676 -34.75 286.4375 C-33.64809326 286.75291748 -33.64809326 286.75291748 -32.52392578 287.07470703 C0.40360227 296.02017228 36.79381708 290.20872244 66.25 273.4375 C76.87283498 266.93316808 86.45084787 259.23665213 95.25 250.4375 C96.03632812 249.65117187 96.82265625 248.86484375 97.6328125 248.0546875 C121.80786754 222.5318942 132.90102974 187.46895435 132.46484375 152.796875 C131.43266341 117.22832509 116.48836034 85.95083234 91.72265625 60.87890625 C85.42181018 54.98654291 78.44257908 50.15482743 71.25 45.4375 C70.46367188 44.90382813 69.67734375 44.37015625 68.8671875 43.8203125 C42.73305678 26.97427005 8.20005248 21.48698218 -22.1875 26.5 C-42.35740827 31.09378208 -61.60021848 39.39787612 -77.75 52.4375 C-78.29221191 52.86901367 -78.83442383 53.30052734 -79.39306641 53.74511719 C-93.2541013 64.85094777 -103.19762458 77.56533201 -112.75 92.4375 C-117.28784942 99.44831412 -117.28784942 99.44831412 -120.75 100.4375 C-125.01220512 100.91107835 -127.1960029 100.73580613 -131 98.6875 C-134.90390471 95.49339615 -136.43275342 94.0237329 -137.4375 89 C-137.16432537 82.30722161 -132.46359538 76.74597703 -128.75 71.4375 C-128.04101562 70.42042969 -127.33203125 69.40335937 -126.6015625 68.35546875 C-121.16908046 60.87354854 -115.12998138 54.10484786 -108.75 47.4375 C-107.4196875 46.02791016 -107.4196875 46.02791016 -106.0625 44.58984375 C-78.19854346 15.79438866 -39.88342599 -0.00658828 0 0 Z " fill="#3D4144" transform="translate(544.75,242.5625)"/>
<path d="M0 0 C5.06933188 3.53280408 7.65096988 9.85693353 10.55810547 15.11230469 C36.07737487 60.40930201 80.89552732 95.39853296 130.82641602 109.44140625 C136.14136823 110.85408665 141.5019277 112.08025782 146.875 113.25 C147.62370361 113.4135498 148.37240723 113.57709961 149.14379883 113.74560547 C160.42431612 116.06686268 171.71651611 116.18642601 183.1862793 116.18530273 C185.66537893 116.18748057 188.14402598 116.20567429 190.62304688 116.22460938 C205.03388377 116.27745153 218.80966074 114.93876206 232.8125 111.3125 C233.83239014 111.05122314 234.85228027 110.78994629 235.90307617 110.52075195 C268.87366415 101.82071621 298.27511457 85.48499442 323 62 C323.52174805 61.51080078 324.04349609 61.02160156 324.58105469 60.51757812 C338.31149723 47.57150593 349.0869138 33.15488307 358.66015625 16.92578125 C364.24125648 7.50582902 364.24125648 7.50582902 368 5 C371.35841165 5 373.8926459 5.05648911 376.53125 7.3046875 C379.94551504 11.29461351 381.15296753 14.53669317 381.25 19.6875 C381.27578125 20.49574219 381.3015625 21.30398438 381.328125 22.13671875 C380.52875764 29.11215063 377.09561636 34.9846128 373.375 40.8125 C372.93551025 41.50682129 372.49602051 42.20114258 372.04321289 42.91650391 C366.29285418 51.84406746 359.39280652 59.70330811 352.24609375 67.53125 C350.74297401 69.18337465 349.25597974 70.85030887 347.78515625 72.53125 C323.64242809 100.02595624 290.25341643 119.10530827 256 131 C254.89011719 131.39703125 253.78023437 131.7940625 252.63671875 132.203125 C199.35109992 149.9885236 138.38497387 144.53819405 88.16210938 120.08154297 C57.3786986 104.68288559 28.96391728 82.47466232 8 55 C7.51418457 54.36352539 7.02836914 53.72705078 6.52783203 53.07128906 C-18.5974582 19.89569808 -18.5974582 19.89569808 -17 6 C-12.99016247 -0.87400719 -7.36465525 -2.32160761 0 0 Z " fill="#3D4144" transform="translate(360,488)"/>
<path d="M0 0 C1.32491203 -0.01485695 1.32491203 -0.01485695 2.67658997 -0.03001404 C4.12608284 -0.02326157 4.12608284 -0.02326157 5.6048584 -0.01637268 C7.13447456 -0.02666756 7.13447456 -0.02666756 8.69499207 -0.03717041 C12.07329137 -0.05550548 15.45112929 -0.05159159 18.82946777 -0.0459137 C21.17212069 -0.05047197 23.51477226 -0.05577647 25.85742188 -0.0617981 C30.77019682 -0.07074218 35.68280932 -0.06829089 40.59558105 -0.05836487 C46.90105174 -0.04686837 53.205963 -0.06709106 59.51136017 -0.09628201 C64.34970683 -0.11459893 69.18791828 -0.11436062 74.02629089 -0.10864449 C76.35158575 -0.10849075 78.67688947 -0.11457818 81.00215149 -0.12693596 C84.24898732 -0.14176032 87.49477485 -0.1312317 90.74157715 -0.11402893 C92.19107002 -0.12853088 92.19107002 -0.12853088 93.66984558 -0.14332581 C100.16053169 -0.0710603 100.16053169 -0.0710603 102.76869202 2.26266479 C104.61841316 6.60824105 104.14223932 11.23968495 104.11071777 15.88768005 C104.13069824 16.93310974 104.15067871 17.97853943 104.17126465 19.0556488 C104.17029785 20.56578552 104.17029785 20.56578552 104.16931152 22.10643005 C104.17116455 23.02359802 104.17301758 23.94076599 104.17492676 24.88572693 C103.49872584 28.2578471 102.3740867 29.27837878 99.67321777 31.38768005 C96.49676514 31.90666199 96.49676514 31.90666199 92.70153809 31.93357849 C91.66190666 31.94908501 91.66190666 31.94908501 90.60127258 31.96490479 C88.31772534 31.99432702 86.03506464 31.99583173 83.75134277 31.99705505 C82.16520498 32.01203722 80.57908278 32.02876445 78.99298096 32.04716492 C74.82386559 32.09084713 70.65496065 32.11083927 66.48565674 32.12590027 C61.48029443 32.14891041 56.47516427 32.201341 51.46998596 32.24884033 C43.8710026 32.31766081 36.272686 32.34910407 28.67321777 32.38768005 C28.67321777 44.92768005 28.67321777 57.46768005 28.67321777 70.38768005 C35.11788574 70.44375427 35.11788574 70.44375427 41.69274902 70.5009613 C45.11705363 70.53906352 48.5412939 70.58013632 51.96553802 70.62322235 C55.58104853 70.66789863 59.19644271 70.70733043 62.81213379 70.7341156 C66.29421363 70.76011246 69.77585617 70.800488 73.25766563 70.85086632 C75.23346977 70.8756877 77.20944297 70.88558944 79.18537903 70.89532471 C80.98690681 70.92501595 80.98690681 70.92501595 82.8248291 70.95530701 C83.88406082 70.96641006 84.94329254 70.97751312 86.03462219 70.98895264 C88.67321777 71.38768005 88.67321777 71.38768005 90.51348877 72.75296021 C93.21756001 76.56453939 92.13827983 82.40258151 92.11071777 86.88768005 C92.13069824 88.04139099 92.15067871 89.19510193 92.17126465 90.3837738 C92.17029785 92.04086365 92.17029785 92.04086365 92.16931152 93.73143005 C92.17116455 94.74398865 92.17301758 95.75654724 92.17492676 96.79978943 C91.67321777 99.38768005 91.67321777 99.38768005 90.01448059 101.02813721 C87.05179714 102.74853146 85.12817307 102.74979112 81.71130371 102.72825623 C80.51036072 102.72802963 79.30941772 102.72780304 78.07208252 102.72756958 C76.7803009 102.71208572 75.48851929 102.69660187 74.15759277 102.6806488 C72.81809973 102.67505057 71.47860052 102.67078154 70.13909912 102.66778564 C66.62083857 102.65635459 63.10295207 102.62690299 59.58483887 102.59367371 C55.99195414 102.56293494 52.39900872 102.54927222 48.80603027 102.53416443 C41.76160681 102.50203118 34.71743677 102.45085626 27.67321777 102.38768005 C27.68210022 103.16806641 27.69098267 103.94845276 27.70013428 104.75248718 C27.78030452 112.10927826 27.84119408 119.46585734 27.88046646 126.82297134 C27.90133572 130.60531 27.92964025 134.38728752 27.97497559 138.16941833 C28.01845851 141.81988317 28.04235986 145.47000081 28.05272675 149.12070465 C28.06011387 150.5129976 28.07453952 151.90527168 28.096138 153.29741669 C28.12519818 155.24821416 28.12685189 157.19936151 28.12731934 159.15037537 C28.13620178 160.26068115 28.14508423 161.37098694 28.15423584 162.51493835 C27.56018886 166.06271263 26.50012154 167.22897833 23.67321777 169.38768005 C20.80407715 169.90525818 20.80407715 169.90525818 17.51696777 169.91893005 C16.32974121 169.9240863 15.14251465 169.92924255 13.91931152 169.93455505 C12.68310059 169.9190863 11.44688965 169.90361755 10.17321777 169.88768005 C8.93700684 169.9031488 7.7007959 169.91861755 6.42712402 169.93455505 C4.64628418 169.92682068 4.64628418 169.92682068 2.82946777 169.91893005 C1.74472168 169.91441833 0.65997559 169.90990662 -0.4576416 169.90525818 C-4.09216778 169.24960846 -5.07389124 168.28387631 -7.32678223 165.38768005 C-7.82735348 162.37385464 -7.82735348 162.37385464 -7.82798767 158.77670288 C-7.83352207 158.1138664 -7.83905646 157.45102991 -7.84475857 156.76810747 C-7.85836558 154.54838693 -7.84339717 152.32979077 -7.82849121 150.11009216 C-7.83227437 148.51832603 -7.83777438 146.92656319 -7.84486389 145.33480835 C-7.85883523 141.0125278 -7.84763761 136.69064455 -7.83115268 132.36838603 C-7.81731318 127.8480858 -7.82376091 123.32780888 -7.82728577 118.80749512 C-7.82998849 111.21721484 -7.81650605 103.62709264 -7.79333496 96.03684998 C-7.76671523 87.25602746 -7.76498091 78.47546912 -7.77672333 69.69462007 C-7.78749398 61.25305986 -7.78132027 52.8115954 -7.76716805 44.3700428 C-7.76140301 40.77478846 -7.76149495 37.17960407 -7.76623344 33.58434868 C-7.77099794 29.3530718 -7.76092369 25.12208508 -7.73927879 20.89086342 C-7.73370386 19.33601231 -7.73325209 17.78113335 -7.73823166 16.22628021 C-7.74416671 14.10775365 -7.73171523 11.99011959 -7.71446228 9.87167358 C-7.71203238 8.68499053 -7.70960249 7.49830748 -7.70709896 6.27566433 C-7.32678223 3.38768005 -7.32678223 3.38768005 -6.07297611 1.50666046 C-3.89244587 0.1093525 -2.58361237 0.00817815 0 0 Z " fill="#3C4043" transform="translate(276.3267822265625,681.6123199462891)"/>
<path d="M0 0 C0.87341537 -0.00990463 1.74683075 -0.01980927 2.64671326 -0.03001404 C3.60212006 -0.02551239 4.55752686 -0.02101074 5.54188538 -0.01637268 C7.05446175 -0.02666756 7.05446175 -0.02666756 8.59759521 -0.03717041 C11.93862395 -0.05550645 15.27918615 -0.05159109 18.62025452 -0.0459137 C20.93809157 -0.05047228 23.25592727 -0.05577688 25.57376099 -0.0617981 C30.4352619 -0.07074264 35.29659865 -0.0682908 40.15809631 -0.05836487 C46.39396882 -0.04687476 52.62927511 -0.06708103 58.8650732 -0.09628201 C63.65284842 -0.11461165 68.44048716 -0.11435796 73.22828865 -0.10864449 C75.5276373 -0.10849087 77.82699496 -0.11456836 80.12631035 -0.12693596 C83.33941733 -0.14178232 86.55146813 -0.13121491 89.76454163 -0.11402893 C90.71792419 -0.1236969 91.67130676 -0.13336487 92.65357971 -0.14332581 C99.08416689 -0.07115423 99.08416689 -0.07115423 102.30764771 2.26266479 C104.06005363 4.90322841 104.23362982 6.51171095 104.24916077 9.66893005 C104.25689514 11.17906677 104.25689514 11.17906677 104.26478577 12.7197113 C104.24931702 13.76514099 104.23384827 14.81057068 104.21791077 15.88768005 C104.24111389 17.45582458 104.24111389 17.45582458 104.26478577 19.0556488 C104.25962952 20.06240662 104.25447327 21.06916443 104.24916077 22.10643005 C104.24464905 23.02359802 104.24013733 23.94076599 104.23548889 24.88572693 C103.5388405 28.25329898 102.4250621 29.28408403 99.71791077 31.38768005 C96.50349426 31.86869812 96.50349426 31.86869812 92.6544342 31.84178162 C91.95159302 31.84236572 91.24875183 31.84294983 90.52461243 31.84355164 C88.20832925 31.84077144 85.89334327 31.80968517 83.57728577 31.77830505 C81.96875207 31.77084237 80.36020926 31.76514956 78.75166321 31.76115417 C74.52311492 31.74589983 70.29511838 31.70662024 66.06678772 31.66233826 C60.99076235 31.61417681 55.91455223 31.59585053 50.83836365 31.57252502 C43.13116257 31.53376851 35.42517153 31.45711484 27.71791077 31.38768005 C28.04791077 44.25768005 28.37791077 57.12768005 28.71791077 70.38768005 C33.02595764 70.43666443 37.33400452 70.4856488 41.77259827 70.53611755 C45.20242084 70.58063827 48.63220391 70.62713487 52.0619812 70.67497253 C55.68537136 70.72496676 59.30872979 70.77145879 62.93226624 70.80955505 C66.42074166 70.84636508 69.90897063 70.89271269 73.39723587 70.94574356 C75.3791985 70.97336116 77.36129149 70.99103784 79.34336853 71.00862122 C80.54446259 71.02849091 81.74555664 71.0483606 82.98304749 71.0688324 C84.04449982 71.08215607 85.10595215 71.09547974 86.1995697 71.10920715 C88.71791077 71.38768005 88.71791077 71.38768005 90.71791077 73.38768005 C91.17755767 77.68221213 91.04190856 82.00890823 91.03041077 86.32518005 C91.04652405 87.53109802 91.06263733 88.73701599 91.07923889 89.97947693 C91.07988342 91.1338324 91.08052795 92.28818787 91.08119202 93.4775238 C91.08417297 94.53834167 91.08715393 95.59915955 91.09022522 96.69212341 C90.71791077 99.38768005 90.71791077 99.38768005 89.56016541 101.03486633 C86.95141315 102.95053845 85.08679552 102.74849065 81.86952209 102.72825623 C80.66850357 102.72802963 79.46748505 102.72780304 78.23007202 102.72756958 C76.93312912 102.71208572 75.63618622 102.69660187 74.29994202 102.6806488 C72.95901972 102.67505239 71.61809127 102.67078251 70.27716064 102.66778564 C66.75066646 102.65634023 63.22454392 102.62687623 59.69819641 102.59367371 C56.09869921 102.56296594 52.49914187 102.54927883 48.89955139 102.53416443 C41.83885263 102.50200584 34.77840598 102.4508135 27.71791077 102.38768005 C27.7245726 103.17028702 27.73123444 103.95289398 27.73809814 104.75921631 C27.79818508 112.13105127 27.84387267 119.50276766 27.87334728 126.87478352 C27.88900987 130.66491445 27.91025855 134.45484322 27.94422913 138.24485779 C27.97680206 141.90178606 27.99475931 145.55851976 28.0025425 149.21558189 C28.00808978 150.61146801 28.01892226 152.00734336 28.03510094 153.40314674 C28.05684506 155.35662595 28.05813591 157.31030056 28.05848694 159.26390076 C28.06514877 160.37642715 28.07181061 161.48895355 28.07867432 162.63519287 C27.71791077 165.38768005 27.71791077 165.38768005 26.38131714 167.24615479 C23.74203486 169.05738231 21.3450275 168.77706161 18.18666077 168.78611755 C16.90146545 168.78998474 15.61627014 168.79385193 14.29212952 168.7978363 C13.62358948 168.79155212 12.95504944 168.78526794 12.26625061 168.77879333 C10.22471747 168.7627336 8.18516369 168.77864677 6.14369202 168.7978363 C4.8584967 168.79396912 3.57330139 168.79010193 2.24916077 168.78611755 C1.06902405 168.78273376 -0.11111267 168.77934998 -1.32701111 168.77586365 C-4.28208923 168.38768005 -4.28208923 168.38768005 -5.94297218 167.26908875 C-7.92182218 164.48887952 -7.65981258 162.28692007 -7.66304016 158.8969574 C-7.66772013 158.23497534 -7.6724001 157.57299328 -7.67722189 156.89095116 C-7.6892072 154.66830403 -7.67970138 152.44626947 -7.67027283 150.22361755 C-7.67433698 148.63200012 -7.67967798 147.0403855 -7.686203 145.44877625 C-7.69990111 141.12237404 -7.69456772 136.79618601 -7.68506575 132.46977997 C-7.67748204 127.94680189 -7.68451117 123.42384243 -7.68922424 118.90086365 C-7.69468556 111.30463867 -7.68748033 103.70850114 -7.67320251 96.11228943 C-7.65687527 87.32411123 -7.66216351 78.53614181 -7.67868173 69.74796867 C-7.6922859 62.209052 -7.69422151 54.67019825 -7.68636572 47.13127327 C-7.68168331 42.62578534 -7.68107991 38.12039561 -7.69097519 33.61491394 C-7.69962706 29.37956191 -7.69365572 25.14447962 -7.67629242 20.9091568 C-7.67231802 19.35268858 -7.67347787 17.79619775 -7.68008041 16.23973846 C-7.68824879 14.1189844 -7.67803272 11.99910092 -7.66304016 9.87840271 C-7.66190908 8.69042084 -7.66077801 7.50243896 -7.65961266 6.27845764 C-7.28208923 3.38768005 -7.28208923 3.38768005 -6.02591038 1.50623989 C-3.8585079 0.11597727 -2.568401 0.0082229 0 0 Z " fill="#3C4043" transform="translate(487.28208923339844,681.6123199462891)"/>
<path d="M0 0 C0.54092285 0.3904248 1.0818457 0.78084961 1.63916016 1.18310547 C19.14016234 13.87641235 19.14016234 13.87641235 20.5546875 20.66015625 C20.85569961 27.09650337 19.40804497 31.5872227 16 37 C12.85304213 38.57347894 10.35480836 38.93783573 7 38 C4.50707784 36.114876 2.34533895 33.9842312 0.08984375 31.8203125 C-22.66022007 10.48786346 -53.90028722 -3.10136236 -84 -10 C-85.17900879 -10.29197266 -85.17900879 -10.29197266 -86.38183594 -10.58984375 C-114.23234621 -17.28709809 -148.32566722 -17.24328204 -176 -10 C-177.29405762 -9.68651611 -177.29405762 -9.68651611 -178.61425781 -9.36669922 C-214.92562782 -0.51754278 -245.05043081 18.60230207 -272 44 C-272.7321875 44.68964844 -273.464375 45.37929688 -274.21875 46.08984375 C-286.61448145 58.11665462 -297.08506263 72.75872988 -306.0078125 87.52075195 C-308.74536773 91.95420167 -311.04622295 94.34874098 -316 96 C-321.35234642 96.34531267 -324.65531768 96.47574585 -329 93 C-330.875 91.25 -330.875 91.25 -332 89 C-330.74072089 70.66312875 -311.72625867 51.25422571 -300 38 C-299.25234375 37.14148438 -298.5046875 36.28296875 -297.734375 35.3984375 C-259.5386702 -7.8808683 -205.50462154 -35.75323924 -147.64453125 -39.72265625 C-96.23705257 -42.56199643 -42.09798439 -30.81643709 0 0 Z " fill="#3D4144" transform="translate(675,212)"/>
<path d="M0 0 C6.07743483 3.38333759 10.65531258 8.3843302 15.51953125 13.2890625 C16.86829597 14.63851456 16.86829597 14.63851456 18.24430847 16.01522827 C20.1368915 17.91082417 22.0274713 19.80817607 23.91479492 21.70898438 C26.33519276 24.14645607 28.76220677 26.57720765 31.19153309 29.00577736 C33.51200043 31.32658142 35.82821006 33.65162134 38.14453125 35.9765625 C39.01737259 36.85051666 39.89021393 37.72447083 40.789505 38.62490845 C41.59091415 39.43269745 42.3923233 40.24048645 43.21801758 41.07275391 C44.28008171 42.14053574 44.28008171 42.14053574 45.36360168 43.22988892 C47.67022021 45.72498499 47.98019279 46.79400505 48.3125 50.25 C47.64541624 58.25500511 40.85614796 63.4369669 35.4375 68.828125 C34.60919678 69.65834167 33.78089355 70.48855835 32.92749023 71.34393311 C31.18165707 73.09112314 29.43331216 74.83580656 27.68261719 76.578125 C25.00222578 79.24778313 22.33269787 81.92797104 19.6640625 84.609375 C17.9641828 86.30793355 16.26368305 88.00587183 14.5625 89.703125 C13.76448975 90.50518372 12.96647949 91.30724243 12.14428711 92.13360596 C11.39671143 92.87487732 10.64913574 93.61614868 9.87890625 94.37988281 C8.89772827 95.35867401 8.89772827 95.35867401 7.89672852 96.35723877 C4.09395814 99.65082754 1.04431472 100.40672091 -4.0390625 100.24609375 C-7.03580677 99.87000831 -8.71401456 98.95941609 -11 97 C-13.61525329 92.94184834 -14.70124748 89.80855413 -14 85 C-10.80175718 79.36382014 -6.35910609 75.12824323 -1.75 70.625 C-1.00492188 69.88894531 -0.25984375 69.15289062 0.5078125 68.39453125 C2.33405762 66.59169953 4.16482205 64.79373022 6 63 C4.8150186 62.99853344 3.63003719 62.99706688 2.40914726 62.99555588 C-25.71986947 62.95985395 -53.84879074 62.90361291 -81.97771246 62.82207905 C-85.43989382 62.81206159 -88.90207565 62.80221746 -92.36425781 62.79248047 C-93.05351596 62.7905391 -93.74277411 62.78859772 -94.45291887 62.78659752 C-105.6133186 62.75557635 -116.77369776 62.73859655 -127.93413247 62.72680578 C-139.38577221 62.7143948 -150.83727931 62.68659727 -162.28885639 62.64538693 C-168.72106163 62.62272775 -175.15311278 62.607092 -181.58536148 62.60811615 C-187.63792431 62.60886012 -193.6901459 62.59101498 -199.74262047 62.55883217 C-201.96541348 62.55030421 -204.18824465 62.54860277 -206.41104698 62.55419731 C-209.4440388 62.56081495 -212.47593781 62.54296945 -215.50881958 62.51898193 C-216.83081759 62.53062256 -216.83081759 62.53062256 -218.17952263 62.54249835 C-223.59903851 62.46652531 -226.68870911 61.59214806 -231 58 C-233.33050995 55.03389643 -233.47717205 51.76070919 -233.38671875 48.03125 C-232.68005565 44.31948421 -230.70651812 42.58349457 -228 40 C-225.21161396 38.33111 -223.16731059 37.74890802 -219.93143082 37.73828697 C-219.12576904 37.73082148 -218.32010725 37.72335599 -217.49003148 37.71566427 C-216.17096779 37.71856637 -216.17096779 37.71856637 -214.82525635 37.7215271 C-213.88670516 37.7157347 -212.94815397 37.7099423 -211.98116183 37.70397437 C-208.828878 37.68693737 -205.67674025 37.68409466 -202.52441406 37.68115234 C-200.26769144 37.67185673 -198.01097227 37.66168861 -195.7542572 37.65071106 C-189.6203995 37.62335571 -183.48656483 37.60824523 -177.35266209 37.59528303 C-170.94510308 37.57967671 -164.53759128 37.55287855 -158.13006592 37.5272522 C-147.373018 37.48574449 -136.61597335 37.45116269 -125.85888672 37.421875 C-114.77911526 37.39168981 -103.69936962 37.35733969 -92.61962891 37.31738281 C-91.59517227 37.31369049 -91.59517227 37.31369049 -90.55001953 37.30992357 C-87.1237495 37.29754898 -83.69747978 37.28509244 -80.27121019 37.27259517 C-51.84750957 37.16902608 -23.42377613 37.07997064 5 37 C4.4652002 36.48091064 3.93040039 35.96182129 3.37939453 35.42700195 C0.95336437 33.06345485 -1.46085349 30.68818135 -3.875 28.3125 C-4.71675781 27.49587891 -5.55851563 26.67925781 -6.42578125 25.83789062 C-7.23144531 25.04189453 -8.03710938 24.24589844 -8.8671875 23.42578125 C-9.61081543 22.69786377 -10.35444336 21.96994629 -11.12060547 21.2199707 C-14.22141036 17.55725066 -14.98660893 14.84363764 -15.0625 10.0625 C-14.37188362 5.78067845 -12.3790914 3.62576166 -8.96484375 1.0703125 C-5.7558279 -0.67773987 -3.55519859 -0.64639974 0 0 Z " fill="#3F4244" transform="translate(418,404)"/>
<path d="M0 0 C1.40088867 -0.02416992 1.40088867 -0.02416992 2.83007812 -0.04882812 C15.31476257 -0.05749203 24.65340753 4.07396344 33.8125 12.4375 C46.93153788 26.34794155 49.07822445 43.03473746 48.5703125 61.28515625 C47.79049852 77.04083185 41.95201222 91.53536648 30.1875 102.3125 C18.57128243 111.27974904 4.77456404 112.68465232 -9.484375 110.99609375 C-21.15607182 108.76237246 -30.4666881 101.50336766 -37.1875 91.8125 C-39.84637476 87.47591271 -42.06187465 83.08976207 -43.8125 78.3125 C-44.11285156 77.50039063 -44.41320312 76.68828125 -44.72265625 75.8515625 C-49.92796892 58.95245438 -47.97090488 39.19180977 -40.125 23.5 C-33.99467866 13.17524827 -26.0687803 5.31197262 -14.68359375 1.17578125 C-9.73209181 0.07156134 -5.05679812 -0.01723517 0 0 Z " fill="#FEAD54" transform="translate(687.8125,710.6875)"/>
<path d="M0 0 C0.82628906 -0.0721875 1.65257812 -0.144375 2.50390625 -0.21875 C7.20185511 0.93227875 10.00945651 4.21294632 13.4375 7.5 C14.67886912 8.63761241 15.92104299 9.77434738 17.1640625 10.91015625 C25.74061677 18.9133292 34.13315815 27.09115726 42.4375 35.375 C42.93002258 35.86493439 43.42254517 36.35486877 43.92999268 36.85964966 C45.33124648 38.2550715 46.72821808 39.65478943 48.125 41.0546875 C48.93324219 41.86405762 49.74148438 42.67342773 50.57421875 43.50732422 C53.4508632 46.58373565 53.97057565 49.07017531 53.90234375 53.30908203 C53.32890589 56.01182959 52.36510723 57.15466778 50.5 59.1796875 C49.86384766 59.87239746 49.22769531 60.56510742 48.57226562 61.27880859 C43.95447102 66.08355417 39.21406678 70.75939794 34.46484375 75.43359375 C30.13907694 79.71769989 25.98595994 84.06434651 22.01904297 88.68261719 C19.69449191 91.35380552 17.24528992 93.861912 14.75 96.375 C13.83863281 97.30054688 12.92726563 98.22609375 11.98828125 99.1796875 C7.65573649 103.12077722 4.45756671 103.99912662 -1.3046875 103.89453125 C-5.15325968 103.22202988 -6.90227988 101.29323112 -9.5625 98.5 C-11.34984102 94.92531796 -11.2757973 91.38841712 -10.5625 87.5 C-8.77453406 84.31539652 -6.15451862 82.04497037 -3.5625 79.5 C-0.96618421 76.91272232 1.62404406 74.31936257 4.21484375 71.7265625 C5.25795715 70.68302612 5.25795715 70.68302612 6.32214355 69.6184082 C8.02740499 67.91241458 9.7325197 66.20627459 11.4375 64.5 C10.68543211 64.49853344 9.93336422 64.49706688 9.15850639 64.49555588 C-9.14473866 64.45849704 -27.44779271 64.39949461 -45.75088692 64.31609726 C-54.60215685 64.27629542 -63.45333774 64.24390876 -72.3046875 64.22900391 C-80.01993526 64.2159933 -87.73498716 64.18904384 -95.45012462 64.14538693 C-99.5349139 64.12275869 -103.61946149 64.10709013 -107.704319 64.10811615 C-111.55071752 64.10886197 -115.39658151 64.09094319 -119.24284172 64.05883217 C-120.65289688 64.05032743 -122.06301195 64.0485872 -123.47308159 64.05419731 C-136.69542009 64.09978852 -136.69542009 64.09978852 -141.5625 59.5 C-144.15286348 56.08542996 -143.99358741 52.66717829 -143.5625 48.5 C-141.44937759 44.50016116 -139.80040464 42.10214471 -135.5625 40.5 C-132.75893784 40.25390434 -132.75893784 40.25390434 -129.46282959 40.25949097 C-128.21203613 40.25674164 -126.96124268 40.25399231 -125.67254639 40.25115967 C-124.28918361 40.25823748 -122.9058218 40.26550709 -121.52246094 40.27294922 C-120.06376147 40.27351345 -118.60506144 40.27319654 -117.1463623 40.27206421 C-113.18799798 40.27149015 -109.22975475 40.28325306 -105.27141857 40.29721212 C-101.1340973 40.3097106 -96.99677328 40.31088929 -92.85943604 40.31326294 C-85.02553049 40.3194803 -77.19168074 40.33589459 -69.35779977 40.35596192 C-60.43890026 40.37831294 -51.5199981 40.38931234 -42.60107756 40.39935279 C-24.2548534 40.42026059 -5.90868119 40.45544156 12.4375 40.5 C12.4375 39.84 12.4375 39.18 12.4375 38.5 C11.86604248 38.25378906 11.29458496 38.00757813 10.70581055 37.75390625 C8.06126061 36.29201749 6.27470252 34.57971414 4.14453125 32.4375 C3.34982422 31.64085937 2.55511719 30.84421875 1.73632812 30.0234375 C0.91583984 29.19070313 0.09535156 28.35796875 -0.75 27.5 C-1.58208984 26.66726563 -2.41417969 25.83453125 -3.27148438 24.9765625 C-10.71163367 17.48183998 -10.71163367 17.48183998 -10.9375 11.6875 C-10.91980591 7.60606216 -10.78467002 6.7791367 -8.125 3.4375 C-7.279375 2.798125 -6.43375 2.15875 -5.5625 1.5 C-3.94687455 -0.11562545 -2.23259006 0.13634138 0 0 Z " fill="#3B4043" transform="translate(328.5625,322.5)"/>
<path d="M0 0 C1.19173828 -0.00064453 2.38347656 -0.00128906 3.61132812 -0.00195312 C5.47241211 0.02801758 5.47241211 0.02801758 7.37109375 0.05859375 C9.23797852 0.04795898 9.23797852 0.04795898 11.14257812 0.03710938 C20.22732109 0.1010518 20.22732109 0.1010518 22.4565897 1.61609745 C24.452295 4.39117685 24.1893216 6.5848552 24.1962738 9.98008728 C24.20165934 10.64136377 24.20704488 11.30264027 24.21259362 11.98395544 C24.22692426 14.20425419 24.2197573 16.42396103 24.21264648 18.64428711 C24.21834743 20.23428325 24.22531061 21.8242753 24.23344421 23.41426086 C24.25142172 27.73658677 24.25019862 32.05871017 24.24450183 36.38106227 C24.24141649 39.987062 24.24749514 43.59302247 24.25354058 47.19901663 C24.26759937 55.70489507 24.26601337 64.2106731 24.25463867 72.71655273 C24.24315665 81.49680246 24.25723138 90.27674676 24.28403515 99.05695623 C24.30617446 106.59079676 24.31283351 114.12454129 24.30695873 121.65841204 C24.30358363 126.16005899 24.30604076 130.66151015 24.32320976 135.16312981 C24.33864868 139.39608009 24.33475765 143.62857715 24.31590462 147.86150932 C24.31221018 149.41594861 24.31535208 150.97042124 24.32579041 152.52482986 C24.33894484 154.64545157 24.32750492 156.76456054 24.30979919 158.88511658 C24.30958991 160.07217666 24.30938063 161.25923674 24.309165 162.48226833 C23.70527293 166.11816486 22.71663333 167.29813841 19.80859375 169.49609375 C17.03125 170.01367188 17.03125 170.01367188 13.87109375 170.02734375 C12.15792969 170.03507812 12.15792969 170.03507812 10.41015625 170.04296875 C9.22164063 170.0275 8.033125 170.01203125 6.80859375 169.99609375 C5.62007813 170.0115625 4.4315625 170.02703125 3.20703125 170.04296875 C2.06492187 170.0378125 0.9228125 170.03265625 -0.25390625 170.02734375 C-1.29675781 170.02283203 -2.33960938 170.01832031 -3.4140625 170.01367188 C-6.97698077 169.34969625 -7.97282102 168.33540152 -10.19140625 165.49609375 C-10.69477081 162.50067902 -10.69477081 162.50067902 -10.69934082 158.92980957 C-10.70870076 157.94273852 -10.70870076 157.94273852 -10.7182498 156.93572664 C-10.73419643 154.73217651 -10.72157034 152.52973007 -10.70898438 150.32617188 C-10.7144048 148.74587865 -10.72152702 147.16559048 -10.73022461 145.58531189 C-10.74847052 141.29396886 -10.74138533 137.00301019 -10.72870827 132.71166039 C-10.71858712 128.22251722 -10.72797148 123.73340714 -10.73425293 119.2442627 C-10.74153192 111.70526211 -10.73193505 104.16641821 -10.71289062 96.62744141 C-10.69112135 87.90907436 -10.69817255 79.19108146 -10.72019625 70.47272348 C-10.7383431 62.98980711 -10.74091209 55.50700343 -10.73044157 48.02407217 C-10.72420269 43.55375122 -10.7233818 39.08360618 -10.73658752 34.61329651 C-10.74813506 30.41068046 -10.74014071 26.2085472 -10.7170105 22.00598335 C-10.71171749 20.46283838 -10.71324734 18.91965285 -10.72206116 17.37652397 C-10.73297786 15.27125858 -10.71930315 13.16754421 -10.69934082 11.06237793 C-10.69783272 9.88399101 -10.69632462 8.7056041 -10.69477081 7.49150848 C-9.63470645 1.18329246 -5.87380107 -0.00997544 0 0 Z " fill="#3C4043" transform="translate(420.19140625,681.50390625)"/>
<path d="M0 0 C4.13535598 1.62761463 6.88664198 4.63252232 9.9375 7.7421875 C10.49945068 8.30696808 11.06140137 8.87174866 11.64038086 9.4536438 C13.4316833 11.25610923 15.21591134 13.06539685 17 14.875 C18.20005716 16.08509542 19.40057326 17.29473589 20.6015625 18.50390625 C22.8114545 20.73010161 25.01866423 22.95888167 27.22265625 25.19091797 C29.4742971 27.46828959 31.73241234 29.73852993 34 32 C31 32 31 32 29.46235657 30.82984924 C28.91830673 30.28215378 28.3742569 29.73445831 27.8137207 29.17016602 C27.19330399 28.5527504 26.57288727 27.93533478 25.93367004 27.29920959 C25.27106674 26.62425949 24.60846344 25.94930939 23.92578125 25.25390625 C23.2419487 24.56820053 22.55811615 23.88249481 21.8535614 23.17601013 C20.40854367 21.72426443 18.9671311 20.26892278 17.52905273 18.81030273 C15.3181145 16.56819365 13.09666765 14.33694672 10.87304688 12.10742188 C9.47333223 10.69853842 8.07422268 9.28905349 6.67578125 7.87890625 C5.67276726 6.86951744 5.67276726 6.86951744 4.64949036 5.83973694 C4.03853012 5.21916916 3.42756989 4.59860138 2.7980957 3.95922852 C2.25643265 3.41073746 1.71476959 2.8622464 1.1566925 2.2971344 C0 1 0 1 0 0 Z " fill="#F2BB57" transform="translate(430,414)"/>
<path d="M0 0 C3.77068832 -0.086985 7.54111932 -0.14038579 11.3125 -0.1875 C12.38435547 -0.21263672 13.45621094 -0.23777344 14.56054688 -0.26367188 C15.58857422 -0.27333984 16.61660156 -0.28300781 17.67578125 -0.29296875 C19.0975769 -0.31653442 19.0975769 -0.31653442 20.5480957 -0.34057617 C23 0 23 0 26 3 C19.4 3 12.8 3 6 3 C6 2.34 6 1.68 6 1 C4.02 1 2.04 1 0 1 C0 0.67 0 0.34 0 0 Z " fill="#4A4644" transform="translate(528,534)"/>
<path d="M0 0 C0.33 0 0.66 0 1 0 C1.33 1.65 1.66 3.3 2 5 C2.33 5 2.66 5 3 5 C3.02714735 7.22909871 3.04646254 9.45829367 3.0625 11.6875 C3.07410156 12.92886719 3.08570313 14.17023438 3.09765625 15.44921875 C3.01478673 18.46235454 2.70839449 21.08275339 2 24 C1.67 24 1.34 24 1 24 C0.09516363 18.63510405 -0.12303662 13.49682543 -0.0625 8.0625 C-0.05798828 7.28326172 -0.05347656 6.50402344 -0.04882812 5.70117188 C-0.03716908 3.80074732 -0.01923877 1.90036294 0 0 Z " fill="#504943" transform="translate(800,377)"/>
<path d="M0 0 C0.99 0.66 1.98 1.32 3 2 C-2.61 7.61 -8.22 13.22 -14 19 C-14 16 -14 16 -12.82250977 14.51367188 C-12.28424561 14.00384766 -11.74598145 13.49402344 -11.19140625 12.96875 C-10.60939453 12.40542969 -10.02738281 11.84210938 -9.42773438 11.26171875 C-8.81220703 10.68035156 -8.19667969 10.09898437 -7.5625 9.5 C-6.35096635 8.34846854 -5.14373256 7.19239165 -3.94140625 6.03125 C-3.40201416 5.52142578 -2.86262207 5.01160156 -2.30688477 4.48632812 C-0.75629273 2.91713057 -0.75629273 2.91713057 0 0 Z " fill="#1F2D40" transform="translate(409,245)"/>
<path d="M0 0 C1.485 0.99 1.485 0.99 3 2 C3.29296875 5.2578125 3.29296875 5.2578125 3.1875 9.125 C3.16042969 10.40632812 3.13335938 11.68765625 3.10546875 13.0078125 C3.07066406 13.99523437 3.03585937 14.98265625 3 16 C2.01 16.33 1.02 16.66 0 17 C0 11.39 0 5.78 0 0 Z " fill="#4D4944" transform="translate(805,509)"/>
<path d="M0 0 C-2 2 -2 2 -3.9375 2.875 C-6.37387353 4.20393102 -7.47537393 5.7130609 -9 8 C-9.66 7.67 -10.32 7.34 -11 7 C-8.76456876 1.59770784 -5.88000164 -0.49000014 0 0 Z " fill="#253140" transform="translate(416,404)"/>
<path d="M0 0 C0 3 0 3 -1 5 C-1.66 5 -2.32 5 -3 5 C-3.2475 5.639375 -3.495 6.27875 -3.75 6.9375 C-5 9 -5 9 -7.078125 9.62890625 C-8.02945312 9.81259766 -8.02945312 9.81259766 -9 10 C-8.06409496 8.8944811 -7.12620142 7.79064547 -6.1875 6.6875 C-5.66542969 6.07261719 -5.14335937 5.45773437 -4.60546875 4.82421875 C-3.12827531 3.14575321 -1.59960869 1.56117966 0 0 Z " fill="#EFB556" transform="translate(366,394)"/>
<path d="M0 0 C0.66 0.33 1.32 0.66 2 1 C-2.23255814 6.74418605 -2.23255814 6.74418605 -6 8 C-6.66 7.67 -7.32 7.34 -8 7 C-5.36 4.69 -2.72 2.38 0 0 Z " fill="#273341" transform="translate(674,558)"/>
<path d="M0 0 C0.33 0.99 0.66 1.98 1 3 C-0.3125 5.1875 -0.3125 5.1875 -2 7 C-2.66 7 -3.32 7 -4 7 C-4.33 7.99 -4.66 8.98 -5 10 C-5.33 9.34 -5.66 8.68 -6 8 C-4.02 5.36 -2.04 2.72 0 0 Z " fill="#283341" transform="translate(420,309)"/>
<path d="M0 0 C0.99 0.33 1.98 0.66 3 1 C2.34 1.66 1.68 2.32 1 3 C0.01 4.485 0.01 4.485 -1 6 C-1.66 6 -2.32 6 -3 6 C-3.33 6.66 -3.66 7.32 -4 8 C-3.50168276 4.31245243 -2.89932357 2.39509338 0 0 Z " fill="#263241" transform="translate(190,444)"/>
<path d="M0 0 C-0.8125 1.9375 -0.8125 1.9375 -2 4 C-2.99 4.33 -3.98 4.66 -5 5 C-5.66 4.34 -6.32 3.68 -7 3 C-3.375 0 -3.375 0 0 0 Z " fill="#2D3742" transform="translate(657,573)"/>
<path d="M0 0 C0.33 0.66 0.66 1.32 1 2 C-1.17508418 6.69360269 -1.17508418 6.69360269 -4.1875 7.8125 C-4.785625 7.874375 -5.38375 7.93625 -6 8 C-2.25 2.25 -2.25 2.25 0 0 Z " fill="#283442" transform="translate(427,300)"/>
<path d="M0 0 C2 2 2 2 2.125 4.625 C2.08375 5.40875 2.0425 6.1925 2 7 C1.34 7 0.68 7 0 7 C-0.33 7.66 -0.66 8.32 -1 9 C-0.67 6.03 -0.34 3.06 0 0 Z " fill="#273440" transform="translate(676,422)"/>
</svg>
